{
  "accessors": [
    {
      "bufferView": 2,
      "componentType": 5126,
      "count": 16905,
      "max": [
        4.21514892578125,
        5.790553092956543,
        -7.7800869941711426
      ],
      "min": [
        -4.2169380187988281,
        -4.3016490936279297,
        -21.782068252563477
      ],
      "type": "VEC3"
    },
    {
      "bufferView": 2,
      "byteOffset": 202860,
      "componentType": 5126,
      "count": 16905,
      "max": [
        0.99986809492111206,
        0.99998879432678223,
        0.99999380111694336
      ],
      "min": [
        -0.99989736080169678,
        -0.99982255697250366,
        -0.99934244155883789
      ],
      "type": "VEC3"
    },
    {
      "bufferView": 3,
      "componentType": 5126,
      "count": 16905,
      "max": [
        0.9999319314956665,
        0.99987506866455078,
        0.99990493059158325,
        1
      ],
      "min": [
        -0.99998253583908081,
        -0.99999487400054932,
        -0.99986380338668823,
        -1
      ],
      "type": "VEC4"
    },
    {
      "bufferView": 1,
      "componentType": 5126,
      "count": 16905,
      "max": [
        1,
        0.99883097410202026
      ],
      "min": [
        1.5999999959603883e-05,
        0.0001049999991664663
      ],
      "type": "VEC2"
    },
    {
      "bufferView": 0,
      "componentType": 5125,
      "count": 92052,
      "max": [
        16904
      ],
      "min": [
        0
      ],
      "type": "SCALAR"
    }
  ],
  "asset": {
    "extras": {
      "author": "Casper (https://sketchfab.com/cie)",
      "license": "CC-BY-NC-ND-4.0 (http://creativecommons.org/licenses/by-nc-nd/4.0/)",
      "source": "https://sketchfab.com/3d-models/andre-schallers-head-of-van-gogh-f7ad00d56b9a4d0db17371ecd9e02233",
      "title": "André Schaller's head of Van Gogh"
    },
    "generator": "Sketchfab-4.64.0",
    "version": "2.0"
  },
  "bufferViews": [
    {
      "buffer": 0,
      "byteLength": 368208,
      "byteOffset": 0,
      "name": "floatBufferViews",
      "target": 34963
    },
    {
      "buffer": 0,
      "byteLength": 135240,
      "byteOffset": 368208,
      "byteStride": 8,
      "name": "floatBufferViews",
      "target": 34962
    },
    {
      "buffer": 0,
      "byteLength": 405720,
      "byteOffset": 503448,
      "byteStride": 12,
      "name": "floatBufferViews",
      "target": 34962
    },
    {
      "buffer": 0,
      "byteLength": 270480,
      "byteOffset": 909168,
      "byteStride": 16,
      "name": "floatBufferViews",
      "target": 34962
    }
  ],
  "buffers": [
    {
      "byteLength": 1179648,
      "uri": "scene.bin"
    }
  ],
  "images": [
    {
      "uri": "textures/vanGogh_LP_v3.2_metallicRoughness.png"
    },
    {
      "uri": "textures/vanGogh_LP_v3.2_normal.png"
    },
    {
      "uri": "textures/vanGogh_LP_v3.2_baseColor.png"
    }
  ],
  "materials": [
    {
      "doubleSided": true,
      "name": "vanGogh_LP_v3.2",
      "normalTexture": {
        "index": 1,
        "scale": 1,
        "texCoord": 0
      },
      "occlusionTexture": {
        "index": 0,
        "strength": 1,
        "texCoord": 0
      },
      "pbrMetallicRoughness": {
        "baseColorFactor": [
          1,
          1,
          1,
          1
        ],
        "baseColorTexture": {
          "index": 2,
          "texCoord": 0
        },
        "metallicFactor": 1,
        "metallicRoughnessTexture": {
          "index": 0,
          "texCoord": 0
        },
        "roughnessFactor": 1
      }
    }
  ],
  "meshes": [
    {
      "primitives": [
        {
          "attributes": {
            "NORMAL": 1,
            "POSITION": 0,
            "TANGENT": 2,
            "TEXCOORD_0": 3
          },
          "indices": 4,
          "material": 0,
          "mode": 4
        }
      ]
    }
  ],
  "nodes": [
    {
      "children": [
        1
      ],
      "name": "RootNode (gltf orientation matrix)",
      "rotation": [
        -0.70710678118654746,
        -0,
        -0,
        0.70710678118654757
      ]
    },
    {
      "children": [
        2
      ],
      "name": "RootNode (model correction matrix)"
    },
    {
      "children": [
        3
      ],
      "name": "vanGogh_LP_v3.2a.obj.cleaner.materialmerger.gles"
    },
    {
      "mesh": 0,
      "name": ""
    }
  ],
  "samplers": [
    {
      "magFilter": 9729,
      "minFilter": 9987,
      "wrapS": 10497,
      "wrapT": 10497
    }
  ],
  "scene": 0,
  "scenes": [
    {
      "name": "OSG_Scene",
      "nodes": [
        0
      ]
    }
  ],
  "textures": [
    {
      "sampler": 0,
      "source": 0
    },
    {
      "sampler": 0,
      "source": 1
    },
    {
      "sampler": 0,
      "source": 2
    }
  ]
}

